<svg xmlns="http://www.w3.org/2000/svg" xmlns:xlink="http://www.w3.org/1999/xlink" width="40" zoomAndPan="magnify" viewBox="0 0 30 30.000001" height="40" preserveAspectRatio="xMidYMid meet" version="1.0"><defs><clipPath id="8435fff913"><path d="M 0.847656 0 L 29.152344 0 L 29.152344 29 L 0.847656 29 Z M 0.847656 0 " clip-rule="nonzero"/></clipPath></defs><g clip-path="url(#8435fff913)"><path fill="#278d46" d="M 29.152344 14.15625 C 29.152344 21.96875 22.816406 28.304688 15 28.304688 C 12.679688 28.308594 10.488281 27.769531 8.433594 26.691406 C 8.425781 26.695312 8.421875 26.695312 8.417969 26.699219 L 4.152344 28.472656 C 2.816406 29.027344 1.46875 27.707031 2 26.359375 L 3.535156 22.449219 C 2.660156 21.246094 1.996094 19.933594 1.535156 18.515625 C 1.078125 17.097656 0.847656 15.644531 0.851562 14.15625 C 0.851562 6.339844 7.1875 0.00390625 15 0.00390625 C 22.816406 0.00390625 29.152344 6.339844 29.152344 14.15625 Z M 29.152344 14.15625 " fill-opacity="1" fill-rule="nonzero"/></g><path fill="#ffffff" d="M 27.316406 14.15625 C 27.316406 14.964844 27.238281 15.765625 27.078125 16.558594 C 26.921875 17.351562 26.6875 18.121094 26.378906 18.867188 C 26.070312 19.613281 25.691406 20.324219 25.242188 20.996094 C 24.792969 21.667969 24.28125 22.289062 23.710938 22.863281 C 23.136719 23.433594 22.515625 23.945312 21.84375 24.394531 C 21.171875 24.84375 20.460938 25.222656 19.714844 25.53125 C 18.96875 25.839844 18.199219 26.074219 17.402344 26.234375 C 16.609375 26.390625 15.808594 26.46875 15 26.46875 C 14.191406 26.46875 13.390625 26.390625 12.597656 26.234375 C 11.804688 26.074219 11.035156 25.839844 10.289062 25.53125 C 9.542969 25.222656 8.832031 24.84375 8.160156 24.394531 C 7.488281 23.945312 6.867188 23.433594 6.292969 22.863281 C 5.722656 22.289062 5.210938 21.667969 4.761719 20.996094 C 4.3125 20.324219 3.933594 19.613281 3.625 18.867188 C 3.316406 18.121094 3.082031 17.351562 2.925781 16.558594 C 2.765625 15.765625 2.6875 14.964844 2.6875 14.15625 C 2.6875 13.347656 2.765625 12.546875 2.925781 11.753906 C 3.082031 10.960938 3.316406 10.191406 3.625 9.441406 C 3.933594 8.695312 4.3125 7.984375 4.761719 7.3125 C 5.210938 6.640625 5.722656 6.019531 6.292969 5.449219 C 6.867188 4.875 7.488281 4.367188 8.160156 3.917969 C 8.832031 3.46875 9.542969 3.085938 10.289062 2.777344 C 11.035156 2.46875 11.804688 2.234375 12.597656 2.078125 C 13.390625 1.917969 14.191406 1.839844 15 1.839844 C 15.808594 1.839844 16.609375 1.917969 17.402344 2.078125 C 18.199219 2.234375 18.96875 2.46875 19.714844 2.777344 C 20.460938 3.085938 21.171875 3.46875 21.84375 3.917969 C 22.515625 4.367188 23.136719 4.875 23.710938 5.449219 C 24.28125 6.019531 24.792969 6.640625 25.242188 7.3125 C 25.691406 7.984375 26.070312 8.695312 26.378906 9.441406 C 26.6875 10.191406 26.921875 10.960938 27.078125 11.753906 C 27.238281 12.546875 27.316406 13.347656 27.316406 14.15625 Z M 27.316406 14.15625 " fill-opacity="1" fill-rule="nonzero"/><path fill="#278d46" d="M 25.589844 14.15625 C 25.589844 14.851562 25.523438 15.539062 25.386719 16.222656 C 25.253906 16.902344 25.050781 17.566406 24.785156 18.207031 C 24.519531 18.851562 24.191406 19.460938 23.808594 20.039062 C 23.421875 20.617188 22.980469 21.152344 22.488281 21.644531 C 22 22.132812 21.464844 22.574219 20.886719 22.960938 C 20.308594 23.347656 19.695312 23.671875 19.054688 23.9375 C 18.410156 24.203125 17.75 24.40625 17.066406 24.542969 C 16.386719 24.675781 15.695312 24.746094 15 24.746094 C 14.304688 24.746094 13.617188 24.675781 12.9375 24.542969 C 12.253906 24.40625 11.589844 24.203125 10.949219 23.9375 C 10.308594 23.671875 9.695312 23.347656 9.117188 22.960938 C 8.539062 22.574219 8.003906 22.132812 7.515625 21.644531 C 7.023438 21.152344 6.582031 20.617188 6.195312 20.039062 C 5.8125 19.460938 5.484375 18.851562 5.21875 18.207031 C 4.953125 17.566406 4.75 16.902344 4.617188 16.222656 C 4.480469 15.539062 4.414062 14.851562 4.414062 14.15625 C 4.414062 13.460938 4.480469 12.769531 4.617188 12.089844 C 4.75 11.40625 4.953125 10.746094 5.21875 10.101562 C 5.484375 9.460938 5.8125 8.851562 6.195312 8.273438 C 6.582031 7.695312 7.023438 7.160156 7.515625 6.667969 C 8.003906 6.175781 8.539062 5.738281 9.117188 5.351562 C 9.695312 4.964844 10.308594 4.636719 10.949219 4.371094 C 11.589844 4.105469 12.253906 3.90625 12.9375 3.769531 C 13.617188 3.632812 14.304688 3.566406 15 3.566406 C 15.695312 3.566406 16.386719 3.632812 17.066406 3.769531 C 17.75 3.90625 18.410156 4.105469 19.054688 4.371094 C 19.695312 4.636719 20.308594 4.964844 20.886719 5.351562 C 21.464844 5.738281 22 6.175781 22.488281 6.667969 C 22.980469 7.160156 23.421875 7.695312 23.808594 8.273438 C 24.191406 8.851562 24.519531 9.460938 24.785156 10.101562 C 25.050781 10.746094 25.253906 11.40625 25.386719 12.089844 C 25.523438 12.769531 25.589844 13.460938 25.589844 14.15625 Z M 25.589844 14.15625 " fill-opacity="1" fill-rule="nonzero"/><path fill="#ffffff" d="M 13.640625 10.695312 L 13.230469 8.957031 C 13.183594 8.753906 13.097656 8.574219 12.96875 8.410156 C 12.84375 8.246094 12.691406 8.113281 12.507812 8.015625 C 12.328125 7.917969 12.132812 7.859375 11.929688 7.84375 C 11.722656 7.828125 11.523438 7.855469 11.328125 7.925781 L 10.378906 8.269531 C 10.058594 8.382812 9.8125 8.585938 9.632812 8.875 C 9.457031 9.164062 9.386719 9.476562 9.429688 9.8125 C 9.761719 12.503906 11.285156 19.011719 18.296875 20.445312 C 18.582031 20.5 18.859375 20.476562 19.128906 20.367188 C 19.398438 20.261719 19.613281 20.085938 19.78125 19.847656 L 20.324219 19.058594 C 20.433594 18.902344 20.511719 18.730469 20.550781 18.539062 C 20.589844 18.351562 20.59375 18.164062 20.558594 17.976562 C 20.527344 17.785156 20.457031 17.609375 20.351562 17.449219 C 20.246094 17.289062 20.117188 17.152344 19.957031 17.042969 L 19.949219 17.035156 L 18.75 16.21875 C 18.484375 16.039062 18.191406 15.957031 17.867188 15.96875 C 17.546875 15.984375 17.261719 16.09375 17.011719 16.300781 C 16.765625 16.503906 16.480469 16.617188 16.160156 16.632812 C 15.839844 16.648438 15.546875 16.566406 15.28125 16.386719 C 14.550781 15.898438 13.566406 15.082031 12.925781 13.953125 C 12.777344 13.691406 12.714844 13.414062 12.738281 13.117188 C 12.761719 12.820312 12.867188 12.554688 13.050781 12.320312 L 13.359375 11.9375 C 13.65625 11.570312 13.75 11.15625 13.640625 10.695312 Z M 13.640625 10.695312 " fill-opacity="1" fill-rule="nonzero"/></svg>