<svg xmlns="http://www.w3.org/2000/svg" xmlns:xlink="http://www.w3.org/1999/xlink" width="40" zoomAndPan="magnify" viewBox="0 0 30 30.000001" height="40" preserveAspectRatio="xMidYMid meet" version="1.0"><defs><clipPath id="3ac2d4bf4c"><path d="M 3.386719 8 L 26.613281 8 L 26.613281 29 L 3.386719 29 Z M 3.386719 8 " clip-rule="nonzero"/></clipPath></defs><g clip-path="url(#3ac2d4bf4c)"><path fill="#000000" d="M 8.777344 8.777344 C 6.617188 9.484375 4.925781 11.230469 4.25 13.460938 C 3.722656 15.207031 3.386719 18.117188 4.828125 22.007812 C 4.84375 22.050781 6.261719 25.894531 9.746094 27.972656 C 11.457031 29 13.605469 28.953125 15.207031 27.863281 L 15.269531 27.824219 C 15.332031 27.773438 15.394531 27.734375 15.449219 27.691406 C 15.539062 27.617188 15.644531 27.582031 15.75 27.582031 C 15.851562 27.582031 15.949219 27.617188 16.042969 27.679688 C 16.125 27.746094 16.207031 27.808594 16.277344 27.851562 L 16.292969 27.855469 C 17.894531 28.953125 20.039062 28.996094 21.75 27.964844 C 24.871094 26.101562 26.328125 22.84375 26.613281 22.140625 C 26.550781 22.140625 26.488281 22.140625 26.425781 22.140625 L 26.410156 22.140625 C 24.753906 22.140625 23.1875 21.5 22.015625 20.351562 C 20.839844 19.191406 20.183594 17.65625 20.183594 16.015625 C 20.179688 13.132812 22.230469 10.664062 25.011719 10.03125 C 24.34375 9.46875 23.570312 9.039062 22.734375 8.765625 C 19.035156 7.558594 16.390625 10.109375 16.105469 10.402344 L 16.089844 10.417969 C 15.910156 10.59375 15.609375 10.59375 15.429688 10.417969 L 15.414062 10.402344 C 15.113281 10.121094 12.476562 7.570312 8.777344 8.777344 Z M 8.777344 8.777344 " fill-opacity="1" fill-rule="evenodd"/></g><path fill="#000000" d="M 17.210938 1.496094 C 16.214844 2.476562 15.734375 3.929688 15.824219 5.617188 C 17.546875 5.707031 19.023438 5.226562 20.019531 4.238281 C 21.011719 3.257812 21.5 1.804688 21.402344 0.121094 C 19.683594 0.03125 18.207031 0.511719 17.210938 1.496094 Z M 17.210938 1.496094 " fill-opacity="1" fill-rule="evenodd"/></svg>